<svg xmlns="http://www.w3.org/2000/svg" xmlns:xlink="http://www.w3.org/1999/xlink"  data-testid="icon-svg-logo" class="sc-ed083cec-13 hHaEXY iconsvg" viewBox="0 0 140 50" height="50" width="140" fill="#354147"><path d="M5.39 8.5v31.92c0 4.29-1.04 5.67-5.39 5.95v1.93h37.73l5.18-15.06-1.93-.76c-3.8 8.22-10.16 12.57-15.34 12.57-4.29 0-5.05-2.41-5.05-7.87V8.5c0-4.28 1.04-5.67 5.4-5.94V.62H0v1.94c4.35.27 5.39 1.66 5.39 5.94"></path><path d="M46.3 6.77a6.7 6.7 0 0 0 6.77 6.77 6.74 6.74 0 0 0 6.77-6.77A6.7 6.7 0 0 0 53.07 0a6.7 6.7 0 0 0-6.77 6.77m.9 20.39v14.3c0 3.46-1.11 4.9-4.15 4.9h-.2v1.94h21.34v-1.93c-2.9-.07-4-1.52-4-4.9V13.4a248.65 248.65 0 0 1-18.6 6.84l3.67 2.97c1.66 1.31 1.94 1.86 1.94 3.94M96.12 42.7v-3.17a8.66 8.66 0 0 1-6.56 2.9c-7.81 0-13.96-6.77-13.96-17.48 0-5.74 1.8-8.71 5.18-8.71 3.66 0 4 2.76 4 7.95 0 2.9 2.08 5.25 4.98 5.25a5.5 5.5 0 0 0 5.6-5.67c0-5.6-5.39-10.09-13.27-10.09-4.42 0-8.57 1.6-11.88 4.5a18.62 18.62 0 0 0-6.15 13.95c0 10.64 7.18 17.62 17.27 17.62 5.74 0 10.85-2.42 14.79-7.04"></path><path d="M113.4 41.46v-9.19l8.08 16.03h18.1v-1.93c-3.31-.21-4.9-1.8-6.77-5.05l-9.67-16.58c4.14-5.11 8.01-7.6 12.85-7.6h.55V15.2H119v1.94h.21c1.93 0 3.1.9 3.1 2.35 0 2.62-2.9 6.29-8.9 10.91V0c-8.71 3.39-14.93 5.74-18.6 6.84l3.67 2.97c1.66 1.32 1.93 1.87 1.93 3.94v27.71c0 3.46-1.1 4.9-4.14 4.9h-.21v1.94h21.7v-1.93h-.2c-3.05 0-4.15-1.45-4.15-4.9"></path></svg>