<svg width="460" height="77" viewBox="0 0 460 77" fill="none" xmlns="http://www.w3.org/2000/svg">
<g clip-path="url(#clip0_4167_8063)">
<path d="M0 16.662C0 11.34 5.31563 7.65626 10.2988 9.52493C10.9729 9.77775 11.5617 10.2164 11.9969 10.79L36.082 42.5383C39.3696 46.872 45.8258 47.044 49.3395 42.8915L72.5231 15.4925C73.2667 14.614 74.1808 13.8956 75.2102 13.3809L78.3477 11.8122C83.998 8.98698 90.6461 13.0958 90.6461 19.4131V59.484C90.6461 64.1775 86.8415 67.9821 82.148 67.9821H8.49807C3.80473 67.9821 0 64.1775 0 59.484V16.662Z" fill="#1ABC9C"/>
<path d="M45.3242 40.8676C45.3242 38.3085 46.4774 35.8857 48.4634 34.2722L76.7903 11.2566C82.3441 6.74425 90.6473 10.6964 90.6473 17.852V59.4843C90.6473 64.1778 86.8427 67.9824 82.1492 67.9824H53.8223C49.1288 67.9824 45.3242 64.1778 45.3242 59.4843V40.8676Z" fill="#66B1E2"/>
<path d="M71.6133 6.90871C75.9773 2.42366 83.0528 2.42366 87.4168 6.90871C91.7806 11.3938 91.7806 18.6655 87.4168 23.1506L53.9866 57.5083C49.6225 61.9933 42.547 61.9933 38.183 57.5083C33.8192 53.0233 33.8192 45.7515 38.183 41.2665L71.6133 6.90871Z" fill="#3F4694"/>
<path d="M3.27689 23.2678C-1.08709 18.7827 -1.08709 11.511 3.27689 7.02592C7.64088 2.54084 14.7163 2.54084 19.0803 7.02592L53.1301 42.0205C57.4941 46.5055 57.4941 53.7773 53.1301 58.2623C48.7661 62.7473 41.6906 62.7473 37.3268 58.2623L3.27689 23.2678Z" fill="#398984"/>
<path d="M45.3194 33.9912L64.8046 53.4764C70.1581 58.8299 66.3665 67.9835 58.7956 67.9835H31.8431C24.2723 67.9835 20.4807 58.8299 25.8342 53.4764L45.3194 33.9912Z" fill="#9EDAE2"/>
<path d="M45.325 33.9912L61.3493 50.0155L55.34 56.0244C49.8089 61.5556 40.8412 61.5556 35.3101 56.0244L29.3008 50.0155L45.325 33.9912Z" fill="#36A6B3"/>
<path d="M0.000543594 15.5781L23.9399 18.6025L10.9442 31.1523L-1.60547 18.1566L0.000543594 15.5781Z" fill="#398984"/>
<path d="M83.6635 6.97955L73.6484 16.9946L83.6635 27.0097L90.6446 19.8273L90.6446 15.5783L83.6635 6.97955Z" fill="#3F4694"/>
<path d="M164.708 28.8307C160.082 28.8307 157.085 30.5246 155.261 33.1307C153.436 30.3943 150.57 28.8307 146.726 28.8307C142.361 28.8307 139.494 30.5246 137.995 32.7398V29.7428H128.223V62.3187H137.995V43.9459C137.995 40.1019 139.82 37.8216 143.077 37.8216C146.205 37.8216 147.768 39.9065 147.768 43.1641V62.3187H157.541V43.9459C157.541 40.1019 159.365 37.8216 162.623 37.8216C165.75 37.8216 167.314 39.9065 167.314 43.1641V62.3187H177.087V42.3171C177.087 34.1731 172.2 28.8307 164.708 28.8307ZM206.851 29.7428V32.8049C204.701 30.3291 201.508 28.8307 197.143 28.8307C188.608 28.8307 181.572 36.3231 181.572 46.0307C181.572 55.7384 188.608 63.2308 197.143 63.2308C201.508 63.2308 204.701 61.7323 206.851 59.2566V62.3187H216.624V29.7428H206.851ZM199.098 53.9793C194.602 53.9793 191.345 50.9171 191.345 46.0307C191.345 41.1444 194.602 38.0822 199.098 38.0822C203.593 38.0822 206.851 41.1444 206.851 46.0307C206.851 50.9171 203.593 53.9793 199.098 53.9793ZM242.316 39.1246V29.7428H235.606V20.6215L225.833 23.5533V29.7428H220.621V39.1246H225.833V50.6565C225.833 59.7778 229.547 63.6218 242.316 62.3187V53.4581C238.016 53.7187 235.606 53.4581 235.606 50.6565V39.1246H242.316ZM266.373 28.8307C262.073 28.8307 258.815 30.3943 257.056 32.8049V16.7124H247.283V62.3187H257.056V44.5323C257.056 39.9065 259.532 37.8216 263.115 37.8216C266.242 37.8216 268.783 39.711 268.783 43.7504V62.3187H278.556V42.3171C278.556 33.5216 272.953 28.8307 266.373 28.8307ZM293.952 39.2549C293.952 38.0822 294.994 37.4307 296.688 37.4307C298.838 37.4307 300.141 38.6034 301.054 40.2974L309.393 35.8019C306.657 31.1761 301.966 28.8307 296.688 28.8307C289.913 28.8307 283.919 32.414 283.919 39.5156C283.919 50.7868 299.946 48.8974 299.946 52.4808C299.946 53.7838 298.773 54.5005 296.428 54.5005C293.561 54.5005 291.737 53.1323 290.89 50.6565L282.42 55.4778C284.961 60.7551 289.913 63.2308 296.428 63.2308C303.464 63.2308 309.979 60.0384 309.979 52.5459C309.979 40.4928 293.952 42.9686 293.952 39.2549ZM334.091 28.8307C329.726 28.8307 326.534 30.3291 324.384 32.8049V29.7428H314.611V75.3491H324.384V59.2566C326.534 61.7323 329.726 63.2308 334.091 63.2308C342.626 63.2308 349.663 55.7384 349.663 46.0307C349.663 36.3231 342.626 28.8307 334.091 28.8307ZM332.137 53.9793C327.641 53.9793 324.384 50.9171 324.384 46.0307C324.384 41.1444 327.641 38.0822 332.137 38.0822C336.632 38.0822 339.89 41.1444 339.89 46.0307C339.89 50.9171 336.632 53.9793 332.137 53.9793ZM378.287 29.7428V32.8049C376.137 30.3291 372.944 28.8307 368.579 28.8307C360.044 28.8307 353.008 36.3231 353.008 46.0307C353.008 55.7384 360.044 63.2308 368.579 63.2308C372.944 63.2308 376.137 61.7323 378.287 59.2566V62.3187H388.06V29.7428H378.287ZM370.534 53.9793C366.038 53.9793 362.781 50.9171 362.781 46.0307C362.781 41.1444 366.038 38.0822 370.534 38.0822C375.029 38.0822 378.287 41.1444 378.287 46.0307C378.287 50.9171 375.029 53.9793 370.534 53.9793ZM410.299 63.2308C416.684 63.2308 422.222 59.9081 425.023 54.8262L416.489 49.9399C415.446 52.2202 413.035 53.5884 410.169 53.5884C405.934 53.5884 402.807 50.5262 402.807 46.0307C402.807 41.5353 405.934 38.4731 410.169 38.4731C413.035 38.4731 415.381 39.8413 416.489 42.1216L425.023 37.1701C422.222 32.1534 416.619 28.8307 410.299 28.8307C400.396 28.8307 393.034 36.3231 393.034 46.0307C393.034 55.7384 400.396 63.2308 410.299 63.2308ZM436.484 49.9399H459.613C459.874 48.702 460.004 47.3989 460.004 46.0307C460.004 36.1928 452.968 28.8307 443.456 28.8307C433.162 28.8307 426.125 36.3231 426.125 46.0307C426.125 55.7384 433.031 63.2308 444.172 63.2308C450.362 63.2308 455.183 60.9505 458.376 56.5202L450.557 52.0247C449.254 53.4581 446.974 54.5005 444.303 54.5005C440.719 54.5005 437.722 53.3278 436.484 49.9399ZM436.289 42.6428C437.201 39.3201 439.677 37.4959 443.391 37.4959C446.322 37.4959 449.254 38.864 450.297 42.6428H436.289Z" fill="#3E3E4C"/>
</g>
<defs>
<clipPath id="clip0_4167_8063">
<rect width="460" height="76.6174" fill="white"/>
</clipPath>
</defs>
</svg>
