<svg  xmlns="http://www.w3.org/2000/svg" xmlns:xlink="http://www.w3.org/1999/xlink" width="167" height="24" viewBox="0 0 167 24" fill="none"><path d="M2.59 8.465H0v-.777h6.075v1.93C7.429 8.03 9.018 7.3 11.067 7.3c1.236 0 2.319.306 3.131.93.577.389.813.73 1.119 1.625C16.553 8.148 18.295 7.3 20.614 7.3c1.555 0 2.98.577 3.674 1.472.577.73.777 1.742.777 3.826v9.513h2.59v.777H19.26v-.777h2.319v-9.513c0-2.59-.082-3.06-.624-3.59-.353-.354-.93-.542-1.542-.542-1.319 0-2.555.777-3.167 1.93-.66 1.272-.695 1.508-.695 7.547v4.18h2.32v.776H9.747v-.777h2.32V12.61c0-1.86-.118-2.673-.425-3.167-.306-.506-1-.848-1.742-.848-1.318 0-2.672.813-3.167 1.896-.506 1.047-.66 2.978-.66 7.464v4.18h2.32v.776H0v-.777h2.59zm28.538 0h-2.59v-.777h6.075V22.12h2.554v.777h-8.63v-.777h2.59zM32.752.777c-1.236 0-2.166.93-2.166 2.166s.93 2.202 2.166 2.202a2.176 2.176 0 0 0 2.202-2.202c0-1.236-1-2.166-2.202-2.166m7.347 0h-2.59V0h6.075v22.121h2.554v.777h-8.63v-.777h2.59zm8.97 0h-2.59V0h6.076v22.121h2.554v.777h-8.63v-.777h2.59zm11.103 13.256v1.119c0 3.755.082 4.638.506 5.45.577 1.12 1.707 1.778 3.167 1.778 2.472 0 4.415-1.707 5.145-4.603h.93c-.624 3.25-3.214 5.486-6.31 5.486-3.944 0-7.465-3.755-7.465-8.005s3.403-7.97 7.276-7.97c2.402 0 4.52 1.165 5.769 3.131.66 1.048.93 1.978 1 3.59H60.173zm5.992-.777c0-2.554-.035-2.86-.306-3.555-.353-.965-1.271-1.507-2.472-1.507-1.083 0-1.978.353-2.52 1-.541.66-.694 1.32-.694 3.25v.812zm7.853-4.791h-2.59v-.777h6.075V9.7c1.271-1.625 2.825-2.402 4.874-2.402 1.542 0 3.096.624 3.944 1.507.894.966 1.083 1.86 1.083 4.721v8.583h2.554v.777H81.6v-.777h2.319v-5.957c0-4.604-.153-5.993-.695-6.735a2.4 2.4 0 0 0-1.93-.965c-1.001 0-2.202.66-2.826 1.542-.73 1.083-.965 2.743-.965 7.5v4.603h2.319v.777h-8.394v-.777h2.59zm19.378 0h-2.59v-.777h6.075V9.7c1.271-1.625 2.826-2.402 4.874-2.402 1.542 0 3.096.624 3.944 1.507.895.966 1.083 1.86 1.083 4.721v8.583h2.555v.777h-8.359v-.777h2.319v-5.957c0-4.604-.153-5.993-.694-6.735a2.4 2.4 0 0 0-1.931-.965c-1 0-2.202.66-2.826 1.542-.73 1.083-.965 2.743-.965 7.5v4.603h2.32v.777h-8.395v-.777h2.59zm19.378 0h-2.59v-.777h6.075V22.12h2.555v.777h-8.63v-.777h2.59zm1.625-7.688c-1.236 0-2.166.93-2.166 2.166s.93 2.202 2.166 2.202a2.177 2.177 0 0 0 2.202-2.202c0-1.236-1.001-2.166-2.202-2.166m21.121 21.344h2.555v.777h-6.04v-2.13c-1.048 1.707-2.743 2.519-5.062 2.519-1.66 0-3.132-.506-4.027-1.39-.965-.965-1.2-1.93-1.2-5.18v-8.24h-2.591V7.7h6.075v9.006c0 3.79.083 4.485.577 5.027.353.424 1.048.66 1.896.66 1.389 0 2.672-.695 3.367-1.779.777-1.236.965-2.519.965-6.734V8.465h-2.59v-.777h6.075zm6.263-13.656h-2.59v-.777h6.075v1.93c1.354-1.589 2.943-2.319 4.992-2.319 1.236 0 2.319.306 3.131.93.577.389.813.73 1.119 1.625 1.236-1.707 2.978-2.555 5.298-2.555 1.542 0 2.978.577 3.673 1.472.577.73.777 1.742.777 3.826v9.513h2.59v.777h-8.394v-.777h2.319v-9.513c0-2.59-.082-3.06-.612-3.59-.353-.354-.93-.542-1.554-.542-1.319 0-2.555.777-3.167 1.93-.659 1.272-.695 1.508-.695 7.547v4.18h2.319v.776h-8.123v-.777h2.319V12.61c0-1.86-.117-2.673-.423-3.167-.307-.506-1.001-.848-1.743-.848-1.318 0-2.672.813-3.167 1.896-.506 1.047-.659 2.978-.659 7.464v4.18h2.319v.776h-8.394v-.777h2.59z" fill="#0032ff"></path></svg>