<svg xmlns="http://www.w3.org/2000/svg" xmlns:xlink="http://www.w3.org/1999/xlink" width="406.85" height="482.03" viewBox="0 0 406.85 482.03"><defs><style>.cls-1{fill:#0054a4;}.cls-2{fill:#63666a;}.cls-3{fill:#fff;}</style></defs><rect class="cls-1" width="405.62" height="404.86"/><path d="M104.29,501.12,98.9,519.58a.92.92,0,0,1-1,.78H96a.89.89,0,0,1-.92-.75L91.37,506.4h-.06l-3.75,13.12c-.2.66-.43.84-1,.84H84.74c-.49,0-.75-.15-.95-.87l-5.51-18.26a1.88,1.88,0,0,1-.06-.37c0-.32.17-.46.52-.46h2.77a.87.87,0,0,1,1,.72L86,514.42h0L89.7,501a.78.78,0,0,1,.86-.63H92.5a.75.75,0,0,1,.8.6L97,514.42h0l3.5-13.36a.8.8,0,0,1,.89-.66h2.48a.42.42,0,0,1,.46.46A.82.82,0,0,1,104.29,501.12Z" transform="translate(-77.14 -76.96)"/><path d="M107.53,520.36H105c-.29,0-.4-.15-.4-.38a.74.74,0,0,1,0-.31l7-18.7a.79.79,0,0,1,.78-.57h2.31a.79.79,0,0,1,.81.52l7.06,18.6a.91.91,0,0,1,.06.38c0,.28-.14.46-.52.46h-2.57a.89.89,0,0,1-1-.69l-1.5-4.24h-7.29l-1.5,4.32A.74.74,0,0,1,107.53,520.36Zm8.59-7.73-2-6.09c-.26-.81-.44-1.41-.58-1.87h-.06c-.14.49-.32,1.09-.61,1.9l-2,6.06Z" transform="translate(-77.14 -76.96)"/><path d="M139.69,520.36h-2.62a1.17,1.17,0,0,1-1.13-.58L131.79,513h-2.22v6.64c0,.43-.18.72-.67.72h-2.36c-.49,0-.69-.23-.69-.72V501.23c0-.63.14-.83.77-.83h4.27c2.51,0,5.17.37,6.7,2.13a6.4,6.4,0,0,1-2.34,9.78l4.73,7.3a.8.8,0,0,1,.14.4C140.12,520.24,140,520.36,139.69,520.36ZM131,503.22h-1.44v7h1.79c2.3,0,3.83-1.24,3.83-3.57C135.19,504.12,133.52,503.22,131,503.22Z" transform="translate(-77.14 -76.96)"/><path d="M168.22,501.12l-5.39,18.46a.94.94,0,0,1-1,.78H160a.89.89,0,0,1-.92-.75L155.3,506.4h-.06l-3.75,13.12c-.2.66-.43.84-1,.84h-1.85c-.49,0-.75-.15-.95-.87l-5.51-18.26a1.8,1.8,0,0,1,0-.37c0-.32.17-.46.52-.46h2.76a.86.86,0,0,1,1,.72l3.52,13.3h0L153.63,501a.78.78,0,0,1,.86-.63h1.93a.76.76,0,0,1,.81.6l3.66,13.42H161l3.49-13.36a.81.81,0,0,1,.9-.66h2.48a.43.43,0,0,1,.46.46A.82.82,0,0,1,168.22,501.12Z" transform="translate(-77.14 -76.96)"/><path d="M179.47,502.21c0,.47-.2.61-.6.61h-1.65v15.11h1.56a.57.57,0,0,1,.61.61v1.24c0,.35-.15.58-.52.58H172a.52.52,0,0,1-.57-.55v-1.3c0-.4.17-.58.57-.58h1.53V502.82h-1.67a.51.51,0,0,1-.58-.58V501a.51.51,0,0,1,.52-.57h7.07a.54.54,0,0,1,.6.55Z" transform="translate(-77.14 -76.96)"/><path d="M198.11,519.52a14.42,14.42,0,0,1-5.74,1.18c-6.09,0-9.06-4.29-9.06-10.24S186.86,500,192.66,500a12.18,12.18,0,0,1,5.42,1.21c.34.18.46.32.46.5a1,1,0,0,1-.09.37l-.66,1.82c-.09.26-.23.37-.4.37a.94.94,0,0,1-.32-.11,8.63,8.63,0,0,0-4.18-1c-4,0-5.57,3.69-5.57,7.18,0,4.44,2.08,7.27,5.62,7.27a10.32,10.32,0,0,0,4.16-.92,1.16,1.16,0,0,1,.34-.12c.21,0,.35.14.47.43l.57,1.56a1.08,1.08,0,0,1,.09.4C198.57,519.2,198.45,519.38,198.11,519.52Z" transform="translate(-77.14 -76.96)"/><path d="M216.45,520.36h-2.88a1.52,1.52,0,0,1-1.39-.72l-6.23-8h0v8c0,.52-.2.72-.7.72h-2.3c-.52,0-.72-.2-.72-.72V501.09c0-.49.26-.69.72-.69h2.3c.47,0,.7.17.7.69v8.16h0l6-8.33a1.23,1.23,0,0,1,1.06-.52h2.31c.29,0,.46.17.46.37a.6.6,0,0,1-.11.35L209,510l7.68,9.43a1.05,1.05,0,0,1,.26.52C216.92,520.21,216.74,520.36,216.45,520.36Z" transform="translate(-77.14 -76.96)"/><path d="M234.11,520.36h-5.37c-.6,0-.75-.23-.75-.84V501.15c0-.61.26-.75.87-.75h4.33c4.64,0,7.24,1.41,7.24,4.87a4.14,4.14,0,0,1-3.26,4.24v0a4.88,4.88,0,0,1,4.81,5C242,519.2,238.2,520.36,234.11,520.36Zm-.81-17.14h-1.61v5.37h1.5c2.1,0,3.6-.55,3.6-2.88C236.79,503.83,235.32,503.22,233.3,503.22Zm3.38,8.51a7,7,0,0,0-3.09-.52h-1.9v6.29h2.13a7.66,7.66,0,0,0,2.71-.37,2.74,2.74,0,0,0,1.67-2.71A2.78,2.78,0,0,0,236.68,511.73Z" transform="translate(-77.14 -76.96)"/><path d="M262.75,511.5c0,5.94-2.79,9.2-8.42,9.2-6.08,0-8.31-3.34-8.31-9.26V501.09c0-.49.29-.69.75-.69h2.28c.49,0,.7.2.7.69v10c0,4.24,1.09,6.43,4.72,6.43s4.59-2.31,4.59-6.43v-10c0-.49.26-.69.72-.69h2.28c.49,0,.69.2.69.69Z" transform="translate(-77.14 -76.96)"/><path d="M273,520.7a17.45,17.45,0,0,1-5.51-.92.64.64,0,0,1-.43-.92l.61-1.88c.08-.29.23-.46.52-.46a1.37,1.37,0,0,1,.43.09,13,13,0,0,0,4.3.86c1.55,0,3.31-.75,3.31-2.56,0-1.33-1-2-2.1-2.6l-3.75-1.87a5.5,5.5,0,0,1-3.4-5c0-3.51,3.46-5.45,6.66-5.45a12.41,12.41,0,0,1,5.16,1c.38.18.58.35.58.58a.91.91,0,0,1-.09.37l-.69,1.76c-.12.32-.29.44-.49.44a1.49,1.49,0,0,1-.46-.12,11,11,0,0,0-3.81-.89c-1.36,0-2.91.57-2.91,2.19,0,1.18,1.09,1.87,2.05,2.34l3.2,1.55c2.28,1.1,3.83,2.63,3.83,5.28C280,518.54,276.77,520.7,273,520.7Z" transform="translate(-77.14 -76.96)"/><path d="M291.89,502.21c0,.47-.2.61-.61.61h-1.64v15.11h1.56a.56.56,0,0,1,.6.61v1.24c0,.35-.14.58-.52.58h-6.86a.52.52,0,0,1-.58-.55v-1.3c0-.4.18-.58.58-.58H286V502.82h-1.67a.51.51,0,0,1-.58-.58V501a.51.51,0,0,1,.52-.57h7.06a.55.55,0,0,1,.61.55Z" transform="translate(-77.14 -76.96)"/><path d="M313.35,519.58c0,.63-.26.78-.69.78h-1.93a1.3,1.3,0,0,1-1.1-.61l-9.4-12.86h-.06v12.72c0,.55-.26.75-.75.75h-2.08c-.54,0-.78-.15-.78-.72V501.18c0-.61.26-.78.78-.78h1.88a1,1,0,0,1,1,.55l9.49,13h.06V501.15c0-.55.26-.75.75-.75h2.16c.6,0,.69.32.69.78Z" transform="translate(-77.14 -76.96)"/><path d="M330.55,519.67c0,.46-.21.69-.7.69h-10.7c-.57,0-.78-.15-.78-.78V501.12c0-.46.21-.72.67-.72h10.87c.58,0,.66.26.61.66l-.2,1.73c-.06.52-.38.61-1,.61h-7.24v5.22h6.67c.55,0,.72.23.72.63v1.65c0,.49-.2.69-.69.69h-6.7v5.77h7.73c.5,0,.73.2.73.66Z" transform="translate(-77.14 -76.96)"/><path d="M340,520.7a17.4,17.4,0,0,1-5.51-.92.63.63,0,0,1-.44-.92l.61-1.88c.09-.29.23-.46.52-.46a1.32,1.32,0,0,1,.43.09,13,13,0,0,0,4.3.86c1.56,0,3.32-.75,3.32-2.56,0-1.33-1-2-2.11-2.6l-3.75-1.87a5.5,5.5,0,0,1-3.4-5c0-3.51,3.46-5.45,6.66-5.45a12.41,12.41,0,0,1,5.16,1c.38.18.58.35.58.58a.91.91,0,0,1-.09.37l-.69,1.76c-.11.32-.29.44-.49.44a1.49,1.49,0,0,1-.46-.12,10.88,10.88,0,0,0-3.81-.89c-1.35,0-2.91.57-2.91,2.19,0,1.18,1.1,1.87,2.05,2.34l3.2,1.55c2.28,1.1,3.84,2.63,3.84,5.28C347.05,518.54,343.79,520.7,340,520.7Z" transform="translate(-77.14 -76.96)"/><path d="M356.45,520.7a17.4,17.4,0,0,1-5.51-.92.63.63,0,0,1-.43-.92l.61-1.88c.08-.29.23-.46.51-.46a1.43,1.43,0,0,1,.44.09,12.91,12.91,0,0,0,4.3.86c1.55,0,3.31-.75,3.31-2.56,0-1.33-1-2-2.1-2.6l-3.75-1.87a5.51,5.51,0,0,1-3.41-5c0-3.51,3.46-5.45,6.67-5.45a12.41,12.41,0,0,1,5.16,1c.37.18.58.35.58.58a.91.91,0,0,1-.09.37l-.69,1.76c-.12.32-.29.44-.49.44a1.55,1.55,0,0,1-.47-.12,10.88,10.88,0,0,0-3.8-.89c-1.36,0-2.92.57-2.92,2.19,0,1.18,1.1,1.87,2.05,2.34l3.2,1.55c2.28,1.1,3.84,2.63,3.84,5.28C363.46,518.54,360.2,520.7,356.45,520.7Z" transform="translate(-77.14 -76.96)"/><path d="M380.68,520.7a17.45,17.45,0,0,1-5.51-.92.63.63,0,0,1-.43-.92l.61-1.88c.08-.29.23-.46.52-.46a1.37,1.37,0,0,1,.43.09,12.91,12.91,0,0,0,4.3.86c1.55,0,3.31-.75,3.31-2.56,0-1.33-1-2-2.1-2.6l-3.75-1.87a5.51,5.51,0,0,1-3.41-5c0-3.51,3.47-5.45,6.67-5.45a12.41,12.41,0,0,1,5.16,1c.38.18.58.35.58.58a.91.91,0,0,1-.09.37l-.69,1.76c-.12.32-.29.44-.49.44a1.43,1.43,0,0,1-.46-.12,11,11,0,0,0-3.81-.89c-1.36,0-2.91.57-2.91,2.19,0,1.18,1.09,1.87,2,2.34l3.21,1.55c2.27,1.1,3.83,2.63,3.83,5.28C387.69,518.54,384.43,520.7,380.68,520.7Z" transform="translate(-77.14 -76.96)"/><path d="M405.75,519.52A14.35,14.35,0,0,1,400,520.7c-6.09,0-9.06-4.29-9.06-10.24S394.5,500,400.3,500a12.15,12.15,0,0,1,5.42,1.21c.35.18.46.32.46.5a1.12,1.12,0,0,1-.08.37l-.67,1.82c-.08.26-.23.37-.4.37a1,1,0,0,1-.32-.11,8.63,8.63,0,0,0-4.18-1c-4,0-5.57,3.69-5.57,7.18,0,4.44,2.08,7.27,5.63,7.27a10.31,10.31,0,0,0,4.15-.92,1.11,1.11,0,0,1,.35-.12c.2,0,.34.14.46.43l.58,1.56a1.29,1.29,0,0,1,.08.4C406.21,519.2,406.1,519.38,405.75,519.52Z" transform="translate(-77.14 -76.96)"/><path d="M425.37,519.64c0,.52-.21.72-.7.72h-2.28c-.51,0-.74-.2-.74-.72v-8.05h-8.2v8.05c0,.52-.23.72-.72.72h-2.25c-.52,0-.78-.2-.78-.72V501.09c0-.49.32-.69.78-.69h2.25c.46,0,.72.17.72.69v7.53h8.2v-7.53c0-.49.28-.69.74-.69h2.28c.47,0,.7.17.7.69Z" transform="translate(-77.14 -76.96)"/><path d="M438.38,520.7c-5.51,0-8.68-4-8.68-10.26S433.16,500,438.58,500c5.71,0,8.68,4.33,8.68,10.24C447.26,516.78,443.54,520.7,438.38,520.7Zm.11-17.53c-2.88,0-4.81,2.68-4.81,7.18,0,4.79,1.75,7.21,4.81,7.21,2.86,0,4.79-2.51,4.79-7.21C443.28,505.5,441.58,503.17,438.49,503.17Z" transform="translate(-77.14 -76.96)"/><path d="M459.26,520.7c-5.51,0-8.68-4-8.68-10.26S454,500,459.46,500c5.72,0,8.69,4.33,8.69,10.24C468.15,516.78,464.43,520.7,459.26,520.7Zm.12-17.53c-2.89,0-4.82,2.68-4.82,7.18,0,4.79,1.76,7.21,4.82,7.21,2.85,0,4.79-2.51,4.79-7.21C464.17,505.5,462.46,503.17,459.38,503.17Z" transform="translate(-77.14 -76.96)"/><path d="M484,519.67c0,.51-.26.69-.7.69H473c-.51,0-.75-.18-.75-.81V501.12a.64.64,0,0,1,.7-.72h2.3c.52,0,.73.2.73.75v16.12h7.29c.49,0,.7.23.7.66Z" transform="translate(-77.14 -76.96)"/><path class="cls-2" d="M86.51,558.12c0,.4-.14.58-.52.58H84.35c-.38,0-.52-.18-.52-.58V540.93H78.26c-.34,0-.46-.12-.46-.46v-1.21c0-.35.12-.44.43-.44H92.34c.37,0,.49.18.46.46l-.17,1.19c-.06.4-.32.46-.72.46h-5.4Z" transform="translate(-77.14 -76.96)"/><path class="cls-2" d="M110.8,558.09c0,.4-.17.61-.55.61H108.7a.53.53,0,0,1-.58-.61v-8.77H98.83v8.77a.53.53,0,0,1-.58.61H96.73a.53.53,0,0,1-.58-.61V539.4a.51.51,0,0,1,.58-.58h1.52a.51.51,0,0,1,.58.58v7.85h9.29V539.4a.51.51,0,0,1,.58-.58h1.55c.38,0,.55.18.55.58Z" transform="translate(-77.14 -76.96)"/><path class="cls-2" d="M127.25,558.18c0,.34-.15.52-.58.52H116.6c-.49,0-.6-.12-.6-.61V539.4c0-.4.14-.58.54-.58H126.7c.43,0,.49.21.46.55l-.12,1.1c0,.4-.29.46-.78.46h-7.58v6.32h6.78c.4,0,.57.17.57.51v1c0,.41-.14.52-.54.52h-6.81v7.27h8c.43,0,.61.14.61.49Z" transform="translate(-77.14 -76.96)"/><path class="cls-2" d="M154.82,550c0,5.28-2.19,9-7.9,9-6.26,0-7.93-3.51-7.93-9.14V539.4c0-.37.17-.58.55-.58h1.58c.41,0,.55.21.55.58v10.18c0,3.87.49,7.15,5.28,7.15,4.61,0,5.19-3.46,5.19-7.18V539.4a.52.52,0,0,1,.58-.58h1.55c.41,0,.55.21.55.58Z" transform="translate(-77.14 -76.96)"/><path class="cls-2" d="M175.59,558.09c0,.49-.14.61-.49.61h-1.32c-.35,0-.58-.15-.87-.55l-10.41-14.6h-.06v14.54a.53.53,0,0,1-.58.61h-1.32c-.41,0-.58-.18-.58-.61V539.43c0-.43.2-.61.58-.61h1.15a.76.76,0,0,1,.75.44l10.61,14.91h.06V539.43c0-.46.17-.61.55-.61H175c.44,0,.55.18.55.61Z" transform="translate(-77.14 -76.96)"/><path class="cls-2" d="M187.45,540.15c0,.4-.11.46-.49.46H185.2v16.27h1.73c.35,0,.49.17.49.43v.92c0,.32-.08.47-.4.47h-6.15c-.31,0-.43-.15-.43-.44v-1c0-.29.09-.4.43-.4h1.73V540.61h-1.84c-.32,0-.43-.09-.43-.4v-1c0-.29.11-.44.4-.44H187c.38,0,.49.15.49.41Z" transform="translate(-77.14 -76.96)"/><path class="cls-2" d="M206.72,538.82c.52,0,.52.26.4.61l-6.66,18.72a.74.74,0,0,1-.75.55h-1.35c-.41,0-.61-.15-.78-.61l-6.87-18.57c-.11-.35-.06-.7.41-.7h1.67c.55,0,.75.12.89.55l5.48,15.55h.06l5.28-15.49c.17-.49.32-.61.86-.61Z" transform="translate(-77.14 -76.96)"/><path class="cls-2" d="M222,558.18c0,.34-.14.52-.58.52H211.31c-.49,0-.61-.12-.61-.61V539.4c0-.4.15-.58.55-.58H221.4c.44,0,.49.21.46.55l-.11,1.1c0,.4-.29.46-.78.46h-7.59v6.32h6.78c.41,0,.58.17.58.51v1c0,.41-.14.52-.55.52h-6.81v7.27h8c.44,0,.61.14.61.49Z" transform="translate(-77.14 -76.96)"/><path class="cls-2" d="M231.67,550.62H228.9v7.47c0,.38-.17.61-.54.61h-1.59c-.37,0-.55-.21-.55-.61V539.46c0-.46.15-.64.58-.64H231c2.6,0,4.82.52,6.09,2.08a6,6,0,0,1-2.86,9.26l0,.06,4.7,7.87c.18.26.12.61-.29.61h-1.73a.89.89,0,0,1-.89-.52Zm-.92-9.75H228.9v7.73h2.23c2.53,0,4.38-1.35,4.38-3.92C235.51,541.85,233.72,540.87,230.75,540.87Z" transform="translate(-77.14 -76.96)"/><path class="cls-2" d="M251.66,553.5c0-1.61-1.12-2.53-2.53-3.28l-3.67-2a5.34,5.34,0,0,1-3.17-4.68c0-3.31,3.09-5.1,6.11-5.1a11.17,11.17,0,0,1,4.59.86c.29.12.46.26.46.49a.76.76,0,0,1-.06.26l-.43,1.18a.4.4,0,0,1-.4.32.89.89,0,0,1-.35-.08,9.93,9.93,0,0,0-3.66-.84c-1.62,0-3.49.75-3.49,2.68,0,1.5,1,2.34,2.25,3l3.08,1.65c2.25,1.21,3.93,2.65,3.93,5.33,0,3.78-3.15,5.68-6.69,5.68a15.94,15.94,0,0,1-4.85-.8.53.53,0,0,1-.37-.72l.37-1.3c.12-.38.4-.44.75-.29a12,12,0,0,0,4.1.84C249.59,556.71,251.66,555.78,251.66,553.5Z" transform="translate(-77.14 -76.96)"/><path class="cls-2" d="M265.16,540.15c0,.4-.11.46-.49.46h-1.76v16.27h1.74c.34,0,.49.17.49.43v.92c0,.32-.09.47-.41.47h-6.14c-.32,0-.43-.15-.43-.44v-1c0-.29.08-.4.43-.4h1.73V540.61h-1.85c-.31,0-.43-.09-.43-.4v-1c0-.29.12-.44.4-.44h6.23c.38,0,.49.15.49.41Z" transform="translate(-77.14 -76.96)"/><path class="cls-2" d="M277,558.12c0,.4-.14.58-.52.58h-1.64c-.38,0-.52-.18-.52-.58V540.93h-5.57c-.34,0-.46-.12-.46-.46v-1.21c0-.35.12-.44.43-.44h14.11c.37,0,.49.18.46.46l-.17,1.19c-.06.4-.32.46-.73.46H277Z" transform="translate(-77.14 -76.96)"/><path class="cls-2" d="M299.75,539.49l-5.82,11.36v7.33c0,.37-.15.52-.49.52h-1.71c-.34,0-.49-.15-.49-.55v-7.24l-6.17-11.51a.64.64,0,0,1-.09-.29c0-.17.15-.29.44-.29H287c.49,0,.78.12,1,.49l4.73,9.35h0l4.56-9.26c.23-.46.38-.58.89-.58h1.22c.31,0,.46.12.46.29A.7.7,0,0,1,299.75,539.49Z" transform="translate(-77.14 -76.96)"/><path class="cls-2" d="M318.42,559c-5.17,0-8.19-3.86-8.19-10.15s3.43-10.35,8.45-10.35c5.3,0,8.22,4.15,8.22,10.15C326.9,555.18,323.23,559,318.42,559Zm.2-18.28c-3.32,0-5.57,3.29-5.57,8,0,5,2,8,5.48,8,3.26,0,5.51-3.11,5.51-8.07S322.14,540.7,318.62,540.7Z" transform="translate(-77.14 -76.96)"/><path class="cls-2" d="M341.44,540.93h-7.59v6.32h6.78c.4,0,.58.17.58.51v1c0,.41-.15.52-.55.52h-6.81v8.77c0,.49-.14.61-.58.61h-1.5c-.46,0-.6-.09-.6-.64V539.4c0-.4.14-.58.55-.58h10.15a.42.42,0,0,1,.46.52l-.12,1.13C342.19,540.87,341.93,540.93,341.44,540.93Z" transform="translate(-77.14 -76.96)"/><path class="cls-2" d="M377,539.43l-5.54,18.66a.71.71,0,0,1-.75.61H369.3c-.37,0-.6-.15-.75-.64l-3.92-14.94h0l-4,14.94c-.14.49-.38.64-.78.64h-1.33c-.4,0-.57-.09-.75-.67l-5.45-18.49a1.35,1.35,0,0,1-.06-.34c0-.2.12-.38.44-.38h1.79c.54,0,.75.15.86.61l4,15.17h0l3.89-15.2c.12-.49.35-.58.81-.58h1.24a.64.64,0,0,1,.69.55l4,15.23h.06l4.1-15.17a.7.7,0,0,1,.8-.61h1.56c.32,0,.43.15.43.35A1.19,1.19,0,0,1,377,539.43Z" transform="translate(-77.14 -76.96)"/><path class="cls-2" d="M391.54,558.18l-1.9-5.37h-7.47l-2,5.4c-.14.37-.26.49-.66.49h-1.71c-.4,0-.34-.32-.26-.58l7.24-18.89a.56.56,0,0,1,.52-.41h1.53a.5.5,0,0,1,.52.35l7.13,18.92c.11.32.11.61-.38.61h-1.79C391.83,558.7,391.69,558.61,391.54,558.18ZM389,550.82l-2.31-6.6c-.35-1-.55-1.65-.66-2.05h0c-.15.46-.35,1-.72,2.1l-2.37,6.55Z" transform="translate(-77.14 -76.96)"/><path class="cls-2" d="M403.26,550.62h-2.77v7.47c0,.38-.17.61-.55.61h-1.59c-.37,0-.54-.21-.54-.61V539.46c0-.46.14-.64.57-.64h4.16c2.59,0,4.81.52,6.08,2.08a6,6,0,0,1-2.85,9.26l0,.06,4.7,7.87c.17.26.11.61-.29.61h-1.73a.92.92,0,0,1-.9-.52Zm-.93-9.75h-1.84v7.73h2.22c2.54,0,4.38-1.35,4.38-3.92C407.09,541.85,405.31,540.87,402.33,540.87Z" transform="translate(-77.14 -76.96)"/><path class="cls-2" d="M437.64,539.43l-5.54,18.66a.69.69,0,0,1-.75.61H430c-.38,0-.61-.15-.75-.64l-3.93-14.94h0l-4,14.94c-.14.49-.37.64-.77.64h-1.33c-.4,0-.58-.09-.75-.67L413,539.54a1.35,1.35,0,0,1-.06-.34c0-.2.12-.38.43-.38h1.79c.55,0,.75.15.87.61l4,15.17h0l3.9-15.2c.11-.49.34-.58.8-.58h1.24a.65.65,0,0,1,.7.55l4,15.23h.05l4.1-15.17a.72.72,0,0,1,.81-.61h1.56c.31,0,.43.15.43.35A.82.82,0,0,1,437.64,539.43Z" transform="translate(-77.14 -76.96)"/><path class="cls-2" d="M447.88,540.15c0,.4-.11.46-.49.46h-1.76v16.27h1.73c.35,0,.49.17.49.43v.92c0,.32-.08.47-.4.47h-6.14c-.32,0-.44-.15-.44-.44v-1c0-.29.09-.4.44-.4H443V540.61h-1.85c-.32,0-.43-.09-.43-.4v-1c0-.29.11-.44.4-.44h6.23c.38,0,.49.15.49.41Z" transform="translate(-77.14 -76.96)"/><path class="cls-2" d="M465.71,555.78c.26-.14.49-.08.63.26l.38.9a.52.52,0,0,1-.32.8,12.69,12.69,0,0,1-5.56,1.24c-6,0-8.86-4.58-8.86-10.21s3.29-10.29,9.06-10.29a10.67,10.67,0,0,1,5.28,1.29c.23.15.34.24.34.41a1.08,1.08,0,0,1-.08.34l-.47,1.07c-.08.2-.2.29-.34.29a.43.43,0,0,1-.26-.09,8.53,8.53,0,0,0-4.3-1.15,5.79,5.79,0,0,0-4.59,2.19,9.2,9.2,0,0,0-1.78,5.8c0,4.33,2,8.22,6.37,8.22A10.32,10.32,0,0,0,465.71,555.78Z" transform="translate(-77.14 -76.96)"/><path class="cls-2" d="M483.45,558.7h-2a1.18,1.18,0,0,1-1.1-.55l-7.21-8.66h0v8.6c0,.4-.17.61-.54.61H471c-.37,0-.55-.21-.55-.61V539.4c0-.4.18-.58.55-.58h1.59c.37,0,.54.18.54.58v8.36h0l6.95-8.56a1,1,0,0,1,.81-.38h1.62c.23,0,.34.12.34.29a.4.4,0,0,1-.08.23l-7.39,9L483.6,558a.91.91,0,0,1,.23.47C483.83,558.61,483.71,558.7,483.45,558.7Z" transform="translate(-77.14 -76.96)"/><path class="cls-3" d="M302.45,373.73v-78a4.07,4.07,0,0,0-4.11-4H271a4,4,0,0,0-4.07,4v3.83a4,4,0,0,0,4.07,4h8.29a4.1,4.1,0,0,1,3.77,3.93V447.66h0c7.12,12.06,24.79,20.59,45.45,20.59,16.52,0,59.48-6.8,59.48-67.19C388,325.12,302.45,345.53,302.45,373.73Zm63.88,37.87c0,13.59-9.74,47.24-37.44,47.24-21.14,0-26.54-18.79-26.44-33.62V408.35c0-14.76,4.58-44.93,34.14-44.93C370.33,363.42,366.32,409.63,366.33,411.6Z" transform="translate(-77.14 -76.96)"/><path class="cls-3" d="M270.17,352.25a4.11,4.11,0,0,0-1.57-.32H229.28a4.07,4.07,0,0,0-3.36,1.83,4,4,0,0,0-.65,2.19v3.89a4.14,4.14,0,0,0,.3,1.54A4,4,0,0,0,227,363.1a3.91,3.91,0,0,0,2.33.76h10.06a2.6,2.6,0,0,1,2.13,3.74l-21.86,61c-.75,2.08-2,2.09-2.74,0l-26.6-72.88a6.18,6.18,0,0,0-5.39-3.77h-1.22a6.18,6.18,0,0,0-5.39,3.77l-26.81,73.35c-.76,2.07-2,2.08-2.79,0l-23.18-61.56a2.54,2.54,0,0,1,1.82-3.68h6.81a4,4,0,0,0,4-4V356a4,4,0,0,0-1.44-3.08c-.06-.05-.1-.11-.16-.15a4,4,0,0,0-2.54-.9H94.69a4,4,0,0,0-2,.54,4.08,4.08,0,0,0-1.39,1.35,4,4,0,0,0-.61,2.12v3.89a4,4,0,0,0,.17,1.15,4.07,4.07,0,0,0,1,1.69,4,4,0,0,0,3,1.3h6.47a6.29,6.29,0,0,1,4.58,3.68l34.41,92.59a6.18,6.18,0,0,0,5.41,3.75h1.49a6.18,6.18,0,0,0,5.38-3.8l2.34-6.48,2.73-7.55,21-57.67c.76-2.08,2-2.08,2.75,0l26,71.64a6.17,6.17,0,0,0,5.39,3.78h1.38a6.22,6.22,0,0,0,5.41-3.77l34.21-92.43a6.26,6.26,0,0,1,4.85-3.73h10a4.11,4.11,0,0,0,1.57-.32,4,4,0,0,0,2.44-3.7V356A4,4,0,0,0,270.17,352.25Z" transform="translate(-77.14 -76.96)"/><path class="cls-3" d="M468.37,427.18a30.67,30.67,0,0,0-11.64-16.57c-2-1.48-4.15-2.8-6.22-4.18L436.44,397c-5.48-3.66-11-7.29-16.45-10.95s-7.43-10.91-3.88-16.49c3.28-5.17,9.62-7.73,15.53-8.12,6.22-.41,13.81,1.57,18.13,6.32,2,2.14,1.9,4.27,1.9,7,0,2.23.45,4.51,2.94,5.21a16.48,16.48,0,0,0,4.91.14,4.14,4.14,0,0,0,4-4.41v-10c0-3.39,0-6.77,0-10.16a4.13,4.13,0,0,0-2.95-4.25,12.34,12.34,0,0,0-3.1-.13c-7.77,0-15.64-.33-23.4.23-15.06,1.08-33.85,7.5-37.58,24.18-2.45,11,4.57,21.3,13.34,27.16,4.53,3,32.6,21.58,33.87,22.68a17.51,17.51,0,0,1,5.45,8.14A17.78,17.78,0,0,1,446,450.08a23.5,23.5,0,0,1-15.3,8.32,25.24,25.24,0,0,1-18.49-4.94,28.79,28.79,0,0,1-5.77-5.47,13,13,0,0,1-1.88-3,10.39,10.39,0,0,1-.4-3.6v-8.77a4.15,4.15,0,0,0-4.34-4.27c-2,0-4.53-.43-6.15,1-1.33,1.18-1.37,2.72-1.37,4.33v15.18c0,1.92-.4,5.41,1.07,6.94A29.34,29.34,0,0,0,400,461a52.8,52.8,0,0,0,16.18,5.86,65.16,65.16,0,0,0,22.32.85c10.85-1.65,20.71-7.49,26.18-17.18C468.58,443.56,470.42,435,468.37,427.18Z" transform="translate(-77.14 -76.96)"/></svg>